<?xml version="1.0" encoding="UTF-8" standalone="no"?><!DOCTYPE svg PUBLIC "-//W3C//DTD SVG 1.1//EN" "http://www.w3.org/Graphics/SVG/1.1/DTD/svg11.dtd"><svg width="100%" height="100%" viewBox="0 0 1024 1024" version="1.1" xmlns="http://www.w3.org/2000/svg" xmlns:xlink="http://www.w3.org/1999/xlink" xml:space="preserve" xmlns:serif="http://www.serif.com/" style="fill-rule:evenodd;clip-rule:evenodd;stroke-linejoin:round;stroke-miterlimit:2;"><path d="M1024,256c0,-141.29 -114.71,-256 -256,-256l-512,0c-141.29,0 -256,114.71 -256,256l0,512c0,141.29 114.71,256 256,256l512,0c141.29,0 256,-114.71 256,-256l0,-512Zm-30,0l0,512c0,124.733 -101.267,226 -226,226l-512,0c-124.733,0 -226,-101.267 -226,-226l0,-512c0,-124.733 101.267,-226 226,-226l512,0c124.733,0 226,101.267 226,226Z" style="fill:#f9f9f9;"/><path d="M208.864,142.687c-20.079,-19.727 -52.396,-19.441 -72.122,0.638c-19.727,20.079 -19.441,52.395 0.638,72.122l678.756,666.849c20.079,19.726 52.396,19.44 72.122,-0.638c19.727,-20.079 19.441,-52.396 -0.638,-72.122l-678.756,-666.849Z" style="fill:#464646;"/><path d="M559.152,486.83c-20.079,-19.727 -52.396,-19.441 -72.122,0.638c-19.727,20.079 -19.441,52.395 0.638,72.122l55.21,54.241c20.079,19.727 52.395,19.441 72.122,-0.638c19.727,-20.079 19.441,-52.395 -0.638,-72.122l-55.21,-54.241Z" style="fill:#6dbedb;"/><path d="M848.791,493.96c0,0 -67.236,-67.752 -122.436,-123.375c-39.234,-39.535 -103.089,-39.779 -142.625,-0.545c0,0 0,0 0,0c0,0 67.236,67.752 122.436,123.375c39.234,39.535 103.089,39.779 142.625,0.545c0,0 0,0 0,0Z" style="fill:#6dbedb;"/><path d="M494.927,844.491c39.535,-39.234 39.779,-103.09 0.545,-142.625c-55.2,-55.624 -122.436,-123.375 -122.436,-123.375c0,0 0,0 0,0c-39.535,39.235 -39.779,103.09 -0.545,142.625c55.2,55.624 122.436,123.375 122.436,123.375c0,0 0,0 0,0Z" style="fill:#6dbedb;"/><path d="M653.434,444.372c20.062,-19.743 20.322,-52.06 0.579,-72.123c-19.743,-20.062 -52.06,-20.322 -72.123,-0.579l-206.468,203.179c-20.062,19.743 -20.322,52.06 -0.579,72.123c19.743,20.062 52.06,20.322 72.123,0.579l206.468,-203.179Z" style="fill:#6dbedb;"/></svg>