<?xml version="1.0" encoding="UTF-8" standalone="no"?><!DOCTYPE svg PUBLIC "-//W3C//DTD SVG 1.1//EN" "http://www.w3.org/Graphics/SVG/1.1/DTD/svg11.dtd"><svg width="100%" height="100%" viewBox="0 0 1024 1024" version="1.1" xmlns="http://www.w3.org/2000/svg" xmlns:xlink="http://www.w3.org/1999/xlink" xml:space="preserve" xmlns:serif="http://www.serif.com/" style="fill-rule:evenodd;clip-rule:evenodd;stroke-linejoin:round;stroke-miterlimit:2;"><path d="M512,19.699c271.708,0 492.301,220.593 492.301,492.301c0,271.708 -220.593,492.301 -492.301,492.301c-271.708,0 -492.301,-220.593 -492.301,-492.301c0,-271.708 220.593,-492.301 492.301,-492.301Zm0,20c260.67,0 472.301,211.631 472.301,472.301c0,260.67 -211.631,472.301 -472.301,472.301c-260.67,0 -472.301,-211.631 -472.301,-472.301c0,-260.67 211.631,-472.301 472.301,-472.301Z" style="fill:#f7f7f7;"/><path d="M268.846,215.958c-8.127,-7.983 -19.091,-12.412 -30.482,-12.311c-11.391,0.101 -22.276,4.723 -30.259,12.849c-0.001,0 -0.001,0.001 -0.002,0.001c-14.592,14.853 -14.38,38.722 0.472,53.314c98.253,96.53 437.334,429.662 538.584,529.136c7.629,7.495 17.923,11.653 28.618,11.558c10.695,-0.095 20.914,-4.434 28.409,-12.063c0.001,0 0.001,-0.001 0.002,-0.001c7.495,-7.63 11.653,-17.924 11.558,-28.619c-0.095,-10.694 -4.434,-20.913 -12.063,-28.409c-100,-98.246 -431.998,-424.42 -534.837,-525.455Z" style="fill:#fff;"/><g><path d="M619.961,338.08c0.023,0.023 0.061,0.024 0.084,0.001c31.338,-29.81 80.92,-29.22 111.539,1.634c37.549,37.837 82.141,82.771 93.87,94.59c0.781,0.786 1.217,1.851 1.212,2.959c-0.004,1.108 -0.448,2.169 -1.235,2.95c0,0 0,0 -0.001,0.001c-14.225,14.117 -33.476,22.005 -53.518,21.928c-20.041,-0.076 -39.231,-8.111 -53.348,-22.337l-42.979,-43.308l-279.094,274.649l46.528,46.885c27.418,27.629 27.248,72.252 -0.38,99.67c-0.001,0 -0.001,0.001 -0.002,0.001c-1.744,1.731 -4.105,2.699 -6.563,2.689c-2.458,-0.009 -4.811,-0.995 -6.542,-2.739c-15.512,-15.631 -55.859,-56.287 -90.285,-90.978c-31.024,-31.261 -30.831,-81.753 0.431,-112.777c0,0 0,0 0,0c0,0 280.283,-275.819 280.283,-275.819c0,0 0,0 0,0.001Z" style="fill:#fff;"/></g></svg>